<svg xmlns="http://www.w3.org/2000/svg" xml:space="preserve" width="1500" height="1500" data-id="lg_LRS4M9v4lyBJKQpmyf" data-version="1" viewBox="0 0 1500 1500"><path fill="#9e9e9e" stroke="transparent" d="M0 0h1500v1500H0z"/><g data-padding="20"><g transform="translate(-576.165 -587.502)scale(1.72788)"><rect width="212.907" height="603.961" x="-852.015" y="239.696" fill="#cbcbcb" rx="104" ry="104" transform="matrix(0 -.9 .9 0 287.12 109.94)"/><rect width="212.907" height="603.961" x="-852.015" y="239.696" fill="#262626" rx="104" ry="104" transform="matrix(0 -.9 .9 0 272.88 96.19)"/><rect width="418.226" height="149.16" x="278.396" y="596.425" fill="none" rx="0" ry="0" transform="translate(274.51 95.59)"/><path fill="#cbcbcb" d="M621.759 786.435v21.12h-52.8v-82.5h26.4v61.38Zm33.66 21.12h-26.4v-82.5h26.4Zm9.91-1.45 3.7-21.78q12.14 3.04 21.85 3.04 9.7 0 15.64-.79v-6.6l-11.88-1.06q-16.11-1.45-22.11-7.72-6.01-6.27-6.01-18.55 0-16.89 7.33-23.23 7.32-6.34 24.88-6.34t31.68 3.3l-3.3 21.12q-12.28-1.98-19.67-1.98t-12.54.66v6.47l9.51.93q17.29 1.71 23.89 8.25 6.6 6.53 6.6 18.15 0 8.31-2.25 14.05-2.24 5.75-5.34 8.72t-8.78 4.55-9.97 1.91-11.41.33q-17.16 0-31.82-3.43m138.2-81.05v21.12h-19.14v61.38h-26.4v-61.38h-19.14v-21.12Zm60.06 32.21v19.14h-26.4v10.03h32.34v21.12h-58.74v-82.5h58.08l-3.3 21.12h-28.38v11.09Zm90.42 50.29h-24.82l-20.19-29.3q-1.06-1.45-1.32-6.34h-.53v35.64h-26.4v-82.5h24.81l20.2 29.31q1.06 1.45 1.32 6.33h.53v-35.64h26.4Z"/></g><path fill="transparent" stroke="transparent" stroke-width="1.792" d="M250 566.308h1000v367.384H250z"/></g></svg>